<svg width="100" height="100" xmlns="http://www.w3.org/2000/svg">
    <!-- <rect x='0' y='0' width="100" height="100" fill="black"/> -->
    <!-- Roof -->
    <line x1="1" x2="50" y1="40" y2="2" stroke="#4CCEC2" stroke-width="3"/>
    <line x1="50" x2="99" y1="2" y2="40" stroke="#4CCEC2" stroke-width="3"/>
    <!-- Angles -->
    <circle cx="50" cy="2" r="1.5" fill="#4CCEC2" /> 
    
    <!-- Walls -->
    <line x1="15" x2="15" y1="40" y2="90" stroke="#4CCEC2" stroke-width="3"/>
    <line x1="85" x2="85" y1="40" y2="90" stroke="#4CCEC2" stroke-width="3"/>
    
    <!-- Floors -->
    <line x1="15" x2="40" y1="90" y2="90" stroke="#4CCEC2" stroke-width="3"/>
    <line x1="60" x2="85" y1="90" y2="90" stroke="#4CCEC2" stroke-width="3"/>
    <!-- Angles -->
    <circle cx="15" cy="90" r="1.4" fill="#4CCEC2" /> 
    <circle cx="40" cy="90" r="1.4" fill="#4CCEC2" /> 
    <circle cx="60" cy="90" r="1.4" fill="#4CCEC2" /> 
    <circle cx="85" cy="90" r="1.4" fill="#4CCEC2" /> 
    

    <!-- Door -->
    <line x1="40" x2="40" y1="60" y2="90" stroke="#4CCEC2" stroke-width="3"/>
    <line x1="60" x2="60" y1="60" y2="90" stroke="#4CCEC2" stroke-width="3"/>
    <line x1="40" x2="60" y1="60" y2="60" stroke="#4CCEC2" stroke-width="3"/>
    <!-- Angles -->
    <circle cx="40" cy="60" r="1.4" fill="#4CCEC2" /> 
    <circle cx="60" cy="60" r="1.4" fill="#4CCEC2" /> 
    
</svg>
  